<svg xmlns="http://www.w3.org/2000/svg" xmlns:xlink="http://www.w3.org/1999/xlink" width="500" zoomAndPan="magnify" viewBox="0 0 375 280.499991" height="374" preserveAspectRatio="xMidYMid meet" version="1.0"><defs><g/></defs><g fill="#000080" fill-opacity="1"><g transform="translate(46.500677, 202.00636)"><g><path d="M 95.40625 -83.703125 L 36.359375 -62.078125 L 95.40625 -40.609375 L 95.40625 -18.4375 L 11 -50.546875 L 11 -73.59375 L 95.40625 -105.703125 Z M 95.40625 -83.703125 "/></g></g></g><g fill="#000080" fill-opacity="1"><g transform="translate(152.721338, 202.00636)"><g><path d="M 52.671875 -149.328125 L 77.328125 -149.328125 L 18.796875 17.734375 L -5.859375 17.734375 Z M 52.671875 -149.328125 "/></g></g></g><g fill="#000080" fill-opacity="1"><g transform="translate(222.234688, 202.00636)"><g><path d="M 95.40625 -73.59375 L 95.40625 -50.546875 L 11 -18.4375 L 11 -40.609375 L 70.046875 -62.078125 L 11 -83.703125 L 11 -105.703125 Z M 95.40625 -73.59375 "/></g></g></g><g fill="#0080ff" fill-opacity="1"><g transform="translate(152.735362, 202.00636)"><g><path d="M 50.890625 17.734375 L -7.625 -149.328125 L 17.03125 -149.328125 L 75.546875 17.734375 Z M 50.890625 17.734375 "/></g></g></g></svg>