<svg xmlns="http://www.w3.org/2000/svg" xmlns:xlink="http://www.w3.org/1999/xlink" width="400" zoomAndPan="magnify" viewBox="0 0 300 74.999997" height="100" preserveAspectRatio="xMidYMid meet" version="1.0"><defs><g/></defs><g fill="#000080" fill-opacity="1"><g transform="translate(7.500005, 55.979108)"><g><path d="M 27.890625 -24.46875 L 10.625 -18.140625 L 27.890625 -11.875 L 27.890625 -5.390625 L 3.21875 -14.765625 L 3.21875 -21.515625 L 27.890625 -30.890625 Z M 27.890625 -24.46875 "/></g></g></g><g fill="#000080" fill-opacity="1"><g transform="translate(38.544476, 55.979108)"><g><path d="M 15.390625 -43.640625 L 22.59375 -43.640625 L 5.5 5.1875 L -1.703125 5.1875 Z M 15.390625 -43.640625 "/></g></g></g><g fill="#000080" fill-opacity="1"><g transform="translate(58.860727, 55.979108)"><g><path d="M 31.046875 -13.84375 C 31.046875 -13.738281 30.992188 -13.007812 30.890625 -11.65625 L 9.796875 -11.65625 C 10.171875 -9.925781 11.066406 -8.5625 12.484375 -7.5625 C 13.898438 -6.5625 15.664062 -6.0625 17.78125 -6.0625 C 19.226562 -6.0625 20.515625 -6.273438 21.640625 -6.703125 C 22.765625 -7.140625 23.8125 -7.828125 24.78125 -8.765625 L 29.078125 -4.09375 C 26.453125 -1.082031 22.613281 0.421875 17.5625 0.421875 C 14.425781 0.421875 11.644531 -0.191406 9.21875 -1.421875 C 6.800781 -2.648438 4.9375 -4.351562 3.625 -6.53125 C 2.3125 -8.707031 1.65625 -11.175781 1.65625 -13.9375 C 1.65625 -16.664062 2.300781 -19.128906 3.59375 -21.328125 C 4.894531 -23.523438 6.675781 -25.234375 8.9375 -26.453125 C 11.195312 -27.679688 13.726562 -28.296875 16.53125 -28.296875 C 19.257812 -28.296875 21.726562 -27.707031 23.9375 -26.53125 C 26.15625 -25.363281 27.894531 -23.679688 29.15625 -21.484375 C 30.414062 -19.285156 31.046875 -16.738281 31.046875 -13.84375 Z M 16.578125 -22.1875 C 14.753906 -22.1875 13.21875 -21.664062 11.96875 -20.625 C 10.726562 -19.59375 9.96875 -18.175781 9.6875 -16.375 L 23.421875 -16.375 C 23.148438 -18.132812 22.390625 -19.539062 21.140625 -20.59375 C 19.898438 -21.65625 18.378906 -22.1875 16.578125 -22.1875 Z M 16.578125 -22.1875 "/></g></g></g><g fill="#000080" fill-opacity="1"><g transform="translate(91.563663, 55.979108)"><g><path d="M 20.671875 -28.296875 C 24.128906 -28.296875 26.921875 -27.257812 29.046875 -25.1875 C 31.171875 -23.113281 32.234375 -20.039062 32.234375 -15.96875 L 32.234375 0 L 24.15625 0 L 24.15625 -14.71875 C 24.15625 -16.925781 23.671875 -18.570312 22.703125 -19.65625 C 21.734375 -20.75 20.332031 -21.296875 18.5 -21.296875 C 16.457031 -21.296875 14.832031 -20.664062 13.625 -19.40625 C 12.414062 -18.144531 11.8125 -16.269531 11.8125 -13.78125 L 11.8125 0 L 3.734375 0 L 3.734375 -27.890625 L 11.453125 -27.890625 L 11.453125 -24.625 C 12.523438 -25.789062 13.851562 -26.691406 15.4375 -27.328125 C 17.03125 -27.972656 18.773438 -28.296875 20.671875 -28.296875 Z M 20.671875 -28.296875 "/></g></g></g><g fill="#000080" fill-opacity="1"><g transform="translate(127.376236, 55.979108)"><g><path d="M 3.734375 -27.890625 L 11.8125 -27.890625 L 11.8125 0 L 3.734375 0 Z M 7.78125 -31.765625 C 6.289062 -31.765625 5.078125 -32.195312 4.140625 -33.0625 C 3.210938 -33.925781 2.75 -35 2.75 -36.28125 C 2.75 -37.5625 3.210938 -38.628906 4.140625 -39.484375 C 5.078125 -40.347656 6.289062 -40.78125 7.78125 -40.78125 C 9.269531 -40.78125 10.476562 -40.363281 11.40625 -39.53125 C 12.34375 -38.707031 12.8125 -37.675781 12.8125 -36.4375 C 12.8125 -35.082031 12.34375 -33.960938 11.40625 -33.078125 C 10.476562 -32.203125 9.269531 -31.765625 7.78125 -31.765625 Z M 7.78125 -31.765625 "/></g></g></g><g fill="#000080" fill-opacity="1"><g transform="translate(142.976213, 55.979108)"><g><path d="M 26.6875 -6.21875 L 26.6875 0 L 1.8125 0 L 1.8125 -4.875 L 16.015625 -21.671875 L 2.171875 -21.671875 L 2.171875 -27.890625 L 26.21875 -27.890625 L 26.21875 -23.015625 L 12.03125 -6.21875 Z M 26.6875 -6.21875 "/></g></g></g><g fill="#000080" fill-opacity="1"><g transform="translate(171.118376, 55.979108)"><g><path d="M 14.984375 -28.296875 C 19.296875 -28.296875 22.609375 -27.265625 24.921875 -25.203125 C 27.242188 -23.148438 28.40625 -20.050781 28.40625 -15.90625 L 28.40625 0 L 20.828125 0 L 20.828125 -3.46875 C 19.304688 -0.875 16.472656 0.421875 12.328125 0.421875 C 10.191406 0.421875 8.335938 0.0546875 6.765625 -0.671875 C 5.191406 -1.398438 3.988281 -2.398438 3.15625 -3.671875 C 2.332031 -4.953125 1.921875 -6.40625 1.921875 -8.03125 C 1.921875 -10.625 2.894531 -12.660156 4.84375 -14.140625 C 6.800781 -15.628906 9.816406 -16.375 13.890625 -16.375 L 20.3125 -16.375 C 20.3125 -18.132812 19.773438 -19.488281 18.703125 -20.4375 C 17.640625 -21.394531 16.035156 -21.875 13.890625 -21.875 C 12.398438 -21.875 10.9375 -21.640625 9.5 -21.171875 C 8.070312 -20.703125 6.859375 -20.070312 5.859375 -19.28125 L 2.953125 -24.921875 C 4.472656 -25.992188 6.296875 -26.820312 8.421875 -27.40625 C 10.546875 -28 12.734375 -28.296875 14.984375 -28.296875 Z M 14.359375 -5.03125 C 15.734375 -5.03125 16.957031 -5.347656 18.03125 -5.984375 C 19.101562 -6.617188 19.863281 -7.5625 20.3125 -8.8125 L 20.3125 -11.65625 L 14.765625 -11.65625 C 11.453125 -11.65625 9.796875 -10.566406 9.796875 -8.390625 C 9.796875 -7.359375 10.203125 -6.539062 11.015625 -5.9375 C 11.828125 -5.332031 12.941406 -5.03125 14.359375 -5.03125 Z M 14.359375 -5.03125 "/></g></g></g><g fill="#000080" fill-opacity="1"><g transform="translate(203.095725, 55.979108)"><g><path d="M 20.671875 -28.296875 C 24.128906 -28.296875 26.921875 -27.257812 29.046875 -25.1875 C 31.171875 -23.113281 32.234375 -20.039062 32.234375 -15.96875 L 32.234375 0 L 24.15625 0 L 24.15625 -14.71875 C 24.15625 -16.925781 23.671875 -18.570312 22.703125 -19.65625 C 21.734375 -20.75 20.332031 -21.296875 18.5 -21.296875 C 16.457031 -21.296875 14.832031 -20.664062 13.625 -19.40625 C 12.414062 -18.144531 11.8125 -16.269531 11.8125 -13.78125 L 11.8125 0 L 3.734375 0 L 3.734375 -27.890625 L 11.453125 -27.890625 L 11.453125 -24.625 C 12.523438 -25.789062 13.851562 -26.691406 15.4375 -27.328125 C 17.03125 -27.972656 18.773438 -28.296875 20.671875 -28.296875 Z M 20.671875 -28.296875 "/></g></g></g><g fill="#000080" fill-opacity="1"><g transform="translate(238.908298, 55.979108)"><g><path d="M 21.71875 -1.34375 C 20.925781 -0.757812 19.945312 -0.316406 18.78125 -0.015625 C 17.625 0.273438 16.410156 0.421875 15.140625 0.421875 C 11.816406 0.421875 9.25 -0.425781 7.4375 -2.125 C 5.625 -3.820312 4.71875 -6.3125 4.71875 -9.59375 L 4.71875 -21.046875 L 0.421875 -21.046875 L 0.421875 -27.265625 L 4.71875 -27.265625 L 4.71875 -34.046875 L 12.796875 -34.046875 L 12.796875 -27.265625 L 19.75 -27.265625 L 19.75 -21.046875 L 12.796875 -21.046875 L 12.796875 -9.6875 C 12.796875 -8.519531 13.097656 -7.613281 13.703125 -6.96875 C 14.304688 -6.332031 15.164062 -6.015625 16.28125 -6.015625 C 17.550781 -6.015625 18.640625 -6.359375 19.546875 -7.046875 Z M 21.71875 -1.34375 "/></g></g></g><g fill="#000080" fill-opacity="1"><g transform="translate(261.453117, 55.979108)"><g><path d="M 27.890625 -21.515625 L 27.890625 -14.765625 L 3.21875 -5.390625 L 3.21875 -11.875 L 20.46875 -18.140625 L 3.21875 -24.46875 L 3.21875 -30.890625 Z M 27.890625 -21.515625 "/></g></g></g><g fill="#0080ff" fill-opacity="1"><g transform="translate(38.898083, 55.057052)"><g><path d="M 14.890625 5.1875 L -2.234375 -43.671875 L 4.984375 -43.671875 L 22.09375 5.1875 Z M 14.890625 5.1875 "/></g></g></g></svg>