<svg xmlns="http://www.w3.org/2000/svg" xmlns:xlink="http://www.w3.org/1999/xlink" width="500" zoomAndPan="magnify" viewBox="0 0 375 280.499991" height="374" preserveAspectRatio="xMidYMid meet" version="1.0"><defs><g/></defs><g fill="#000080" fill-opacity="1"><g transform="translate(28.333724, 213.224616)"><g><path d="M 107.703125 -94.484375 L 41.03125 -70.0625 L 107.703125 -45.84375 L 107.703125 -20.8125 L 12.40625 -57.046875 L 12.40625 -83.078125 L 107.703125 -119.3125 Z M 107.703125 -94.484375 "/></g></g></g><g fill="#000080" fill-opacity="1"><g transform="translate(148.240309, 213.224616)"><g><path d="M 59.453125 -168.5625 L 87.28125 -168.5625 L 21.21875 20.015625 L -6.609375 20.015625 Z M 59.453125 -168.5625 "/></g></g></g><g fill="#000080" fill-opacity="1"><g transform="translate(226.710055, 213.224616)"><g><path d="M 107.703125 -83.078125 L 107.703125 -57.046875 L 12.40625 -20.8125 L 12.40625 -45.84375 L 79.078125 -70.0625 L 12.40625 -94.484375 L 12.40625 -119.3125 Z M 107.703125 -83.078125 "/></g></g></g><g fill="#0080ff" fill-opacity="1"><g transform="translate(148.256134, 213.224616)"><g><path d="M 57.453125 20.015625 L -8.609375 -168.5625 L 19.21875 -168.5625 L 85.28125 20.015625 Z M 57.453125 20.015625 "/></g></g></g></svg>