<svg xmlns="http://www.w3.org/2000/svg" xmlns:xlink="http://www.w3.org/1999/xlink" width="500" zoomAndPan="magnify" viewBox="0 0 375 247.499998" height="330" preserveAspectRatio="xMidYMid meet" version="1.0"><defs><g/></defs><g fill="#000080" fill-opacity="1"><g transform="translate(0.378026, 195.111429)"><g><path d="M 95.953125 -127.34375 L 110.296875 -104.6875 L 42.828125 -65.28125 L 110.296875 -26.609375 L 95.421875 -3.21875 L 14.453125 -53.53125 L 14.453125 -76.828125 Z M 95.953125 -127.34375 "/></g></g></g><g fill="#000080" fill-opacity="1"><g transform="translate(125.111073, 195.111429)"><g><path d="M 31.609375 23.28125 L 5.921875 11.53125 L 93.34375 -169.859375 L 118.8125 -158.109375 Z M 31.609375 23.28125 "/></g></g></g><g fill="#000080" fill-opacity="1"><g transform="translate(249.84412, 195.111429)"><g><path d="M 29 -127.34375 L 110.296875 -77.03125 L 110.296875 -53.53125 L 29.3125 -3.21875 L 14.453125 -25.578125 L 82.015625 -65.28125 L 14.453125 -103.75 Z M 29 -127.34375 "/></g></g></g><g fill="#0080ff" fill-opacity="1"><g transform="translate(125.122285, 195.111429)"><g><path d="M 5.921875 -158.109375 L 31.609375 -169.859375 L 118.8125 11.53125 L 93.140625 23.28125 Z M 5.921875 -158.109375 "/></g></g></g></svg>