<svg xmlns="http://www.w3.org/2000/svg" xmlns:xlink="http://www.w3.org/1999/xlink" width="500" zoomAndPan="magnify" viewBox="0 0 375 80.999996" height="108" preserveAspectRatio="xMidYMid meet" version="1.0"><defs><g/></defs><g fill="#000080" fill-opacity="1"><g transform="translate(8.100009, 64.325388)"><g><path d="M 35.109375 -30.796875 L 13.375 -22.84375 L 35.109375 -14.9375 L 35.109375 -6.78125 L 4.046875 -18.59375 L 4.046875 -27.078125 L 35.109375 -38.890625 Z M 35.109375 -30.796875 "/></g></g></g><g fill="#000080" fill-opacity="1"><g transform="translate(47.183366, 64.325388)"><g><path d="M 19.375 -54.9375 L 28.453125 -54.9375 L 6.921875 6.53125 L -2.15625 6.53125 Z M 19.375 -54.9375 "/></g></g></g><g fill="#000080" fill-opacity="1"><g transform="translate(72.760458, 64.325388)"><g><path d="M 39.078125 -17.421875 C 39.078125 -17.285156 39.015625 -16.375 38.890625 -14.6875 L 12.328125 -14.6875 C 12.804688 -12.507812 13.9375 -10.789062 15.71875 -9.53125 C 17.507812 -8.269531 19.726562 -7.640625 22.375 -7.640625 C 24.207031 -7.640625 25.828125 -7.910156 27.234375 -8.453125 C 28.648438 -8.992188 29.96875 -9.851562 31.1875 -11.03125 L 36.609375 -5.15625 C 33.296875 -1.375 28.46875 0.515625 22.125 0.515625 C 18.164062 0.515625 14.660156 -0.253906 11.609375 -1.796875 C 8.566406 -3.335938 6.21875 -5.476562 4.5625 -8.21875 C 2.914062 -10.957031 2.09375 -14.066406 2.09375 -17.546875 C 2.09375 -20.984375 2.90625 -24.082031 4.53125 -26.84375 C 6.164062 -29.613281 8.40625 -31.769531 11.25 -33.3125 C 14.101562 -34.851562 17.289062 -35.625 20.8125 -35.625 C 24.25 -35.625 27.359375 -34.882812 30.140625 -33.40625 C 32.929688 -31.925781 35.117188 -29.804688 36.703125 -27.046875 C 38.285156 -24.285156 39.078125 -21.078125 39.078125 -17.421875 Z M 20.875 -27.921875 C 18.570312 -27.921875 16.632812 -27.269531 15.0625 -25.96875 C 13.5 -24.664062 12.546875 -22.882812 12.203125 -20.625 L 29.5 -20.625 C 29.144531 -22.84375 28.179688 -24.613281 26.609375 -25.9375 C 25.046875 -27.257812 23.132812 -27.921875 20.875 -27.921875 Z M 20.875 -27.921875 "/></g></g></g><g fill="#000080" fill-opacity="1"><g transform="translate(113.931735, 64.325388)"><g><path d="M 26.03125 -35.625 C 30.382812 -35.625 33.894531 -34.316406 36.5625 -31.703125 C 39.238281 -29.097656 40.578125 -25.226562 40.578125 -20.09375 L 40.578125 0 L 30.40625 0 L 30.40625 -18.53125 C 30.40625 -21.3125 29.796875 -23.382812 28.578125 -24.75 C 27.359375 -26.125 25.597656 -26.8125 23.296875 -26.8125 C 20.722656 -26.8125 18.675781 -26.015625 17.15625 -24.421875 C 15.632812 -22.835938 14.875 -20.484375 14.875 -17.359375 L 14.875 0 L 4.703125 0 L 4.703125 -35.109375 L 14.421875 -35.109375 L 14.421875 -31 C 15.765625 -32.476562 17.4375 -33.617188 19.4375 -34.421875 C 21.445312 -35.222656 23.644531 -35.625 26.03125 -35.625 Z M 26.03125 -35.625 "/></g></g></g><g fill="#000080" fill-opacity="1"><g transform="translate(159.017883, 64.325388)"><g><path d="M 4.703125 -35.109375 L 14.875 -35.109375 L 14.875 0 L 4.703125 0 Z M 9.78125 -40 C 7.914062 -40 6.394531 -40.539062 5.21875 -41.625 C 4.039062 -42.71875 3.453125 -44.066406 3.453125 -45.671875 C 3.453125 -47.285156 4.039062 -48.632812 5.21875 -49.71875 C 6.394531 -50.8125 7.914062 -51.359375 9.78125 -51.359375 C 11.65625 -51.359375 13.175781 -50.832031 14.34375 -49.78125 C 15.519531 -48.738281 16.109375 -47.4375 16.109375 -45.875 C 16.109375 -44.175781 15.519531 -42.769531 14.34375 -41.65625 C 13.175781 -40.550781 11.65625 -40 9.78125 -40 Z M 9.78125 -40 "/></g></g></g><g fill="#000080" fill-opacity="1"><g transform="translate(178.657434, 64.325388)"><g><path d="M 33.609375 -7.828125 L 33.609375 0 L 2.28125 0 L 2.28125 -6.140625 L 20.15625 -27.28125 L 2.734375 -27.28125 L 2.734375 -35.109375 L 33.015625 -35.109375 L 33.015625 -28.96875 L 15.140625 -7.828125 Z M 33.609375 -7.828125 "/></g></g></g><g fill="#000080" fill-opacity="1"><g transform="translate(214.086938, 64.325388)"><g><path d="M 18.859375 -35.625 C 24.296875 -35.625 28.46875 -34.328125 31.375 -31.734375 C 34.289062 -29.148438 35.75 -25.25 35.75 -20.03125 L 35.75 0 L 26.234375 0 L 26.234375 -4.375 C 24.316406 -1.113281 20.75 0.515625 15.53125 0.515625 C 12.832031 0.515625 10.492188 0.0625 8.515625 -0.84375 C 6.535156 -1.757812 5.023438 -3.019531 3.984375 -4.625 C 2.941406 -6.238281 2.421875 -8.066406 2.421875 -10.109375 C 2.421875 -13.367188 3.644531 -15.9375 6.09375 -17.8125 C 8.550781 -19.6875 12.347656 -20.625 17.484375 -20.625 L 25.578125 -20.625 C 25.578125 -22.84375 24.898438 -24.546875 23.546875 -25.734375 C 22.203125 -26.929688 20.179688 -27.53125 17.484375 -27.53125 C 15.617188 -27.53125 13.78125 -27.238281 11.96875 -26.65625 C 10.164062 -26.070312 8.632812 -25.273438 7.375 -24.265625 L 3.71875 -31.390625 C 5.632812 -32.734375 7.925781 -33.773438 10.59375 -34.515625 C 13.269531 -35.253906 16.023438 -35.625 18.859375 -35.625 Z M 18.078125 -6.328125 C 19.816406 -6.328125 21.359375 -6.726562 22.703125 -7.53125 C 24.054688 -8.34375 25.015625 -9.53125 25.578125 -11.09375 L 25.578125 -14.6875 L 18.59375 -14.6875 C 14.414062 -14.6875 12.328125 -13.316406 12.328125 -10.578125 C 12.328125 -9.265625 12.835938 -8.226562 13.859375 -7.46875 C 14.890625 -6.707031 16.296875 -6.328125 18.078125 -6.328125 Z M 18.078125 -6.328125 "/></g></g></g><g fill="#000080" fill-opacity="1"><g transform="translate(254.34474, 64.325388)"><g><path d="M 26.03125 -35.625 C 30.382812 -35.625 33.894531 -34.316406 36.5625 -31.703125 C 39.238281 -29.097656 40.578125 -25.226562 40.578125 -20.09375 L 40.578125 0 L 30.40625 0 L 30.40625 -18.53125 C 30.40625 -21.3125 29.796875 -23.382812 28.578125 -24.75 C 27.359375 -26.125 25.597656 -26.8125 23.296875 -26.8125 C 20.722656 -26.8125 18.675781 -26.015625 17.15625 -24.421875 C 15.632812 -22.835938 14.875 -20.484375 14.875 -17.359375 L 14.875 0 L 4.703125 0 L 4.703125 -35.109375 L 14.421875 -35.109375 L 14.421875 -31 C 15.765625 -32.476562 17.4375 -33.617188 19.4375 -34.421875 C 21.445312 -35.222656 23.644531 -35.625 26.03125 -35.625 Z M 26.03125 -35.625 "/></g></g></g><g fill="#000080" fill-opacity="1"><g transform="translate(299.430888, 64.325388)"><g><path d="M 27.34375 -1.703125 C 26.34375 -0.960938 25.113281 -0.40625 23.65625 -0.03125 C 22.195312 0.332031 20.660156 0.515625 19.046875 0.515625 C 14.867188 0.515625 11.640625 -0.546875 9.359375 -2.671875 C 7.078125 -4.804688 5.9375 -7.941406 5.9375 -12.078125 L 5.9375 -26.484375 L 0.515625 -26.484375 L 0.515625 -34.328125 L 5.9375 -34.328125 L 5.9375 -42.875 L 16.109375 -42.875 L 16.109375 -34.328125 L 24.859375 -34.328125 L 24.859375 -26.484375 L 16.109375 -26.484375 L 16.109375 -12.203125 C 16.109375 -10.722656 16.488281 -9.578125 17.25 -8.765625 C 18.019531 -7.960938 19.097656 -7.5625 20.484375 -7.5625 C 22.097656 -7.5625 23.46875 -8 24.59375 -8.875 Z M 27.34375 -1.703125 "/></g></g></g><g fill="#000080" fill-opacity="1"><g transform="translate(327.81363, 64.325388)"><g><path d="M 35.109375 -27.078125 L 35.109375 -18.59375 L 4.046875 -6.78125 L 4.046875 -14.9375 L 25.78125 -22.84375 L 4.046875 -30.796875 L 4.046875 -38.890625 Z M 35.109375 -27.078125 "/></g></g></g><g fill="#0080ff" fill-opacity="1"><g transform="translate(47.628531, 63.261595)"><g><path d="M 18.765625 6.546875 L -2.8125 -55.078125 L 6.28125 -55.078125 L 27.859375 6.546875 Z M 18.765625 6.546875 "/></g></g></g></svg>