<svg xmlns="http://www.w3.org/2000/svg" xmlns:xlink="http://www.w3.org/1999/xlink" width="500" zoomAndPan="magnify" viewBox="0 0 375 74.249996" height="99" preserveAspectRatio="xMidYMid meet" version="1.0"><defs><g/></defs><g fill="#000080" fill-opacity="1"><g transform="translate(1.888301, 58.228361)"><g><path d="M 28.5625 -37.890625 L 32.828125 -31.15625 L 12.75 -19.421875 L 32.828125 -7.921875 L 28.40625 -0.953125 L 4.296875 -15.9375 L 4.296875 -22.859375 Z M 28.5625 -37.890625 "/></g></g></g><g fill="#000080" fill-opacity="1"><g transform="translate(39.009962, 58.228361)"><g><path d="M 9.40625 6.9375 L 1.765625 3.4375 L 27.78125 -50.546875 L 35.359375 -47.0625 Z M 9.40625 6.9375 "/></g></g></g><g fill="#000080" fill-opacity="1"><g transform="translate(76.131623, 58.228361)"><g><path d="M 12.8125 -13.578125 C 13.03125 -11.785156 13.492188 -10.335938 14.203125 -9.234375 C 14.921875 -8.128906 15.835938 -7.320312 16.953125 -6.8125 C 18.066406 -6.3125 19.316406 -6.0625 20.703125 -6.0625 C 22.203125 -6.0625 23.648438 -6.304688 25.046875 -6.796875 C 26.453125 -7.296875 27.804688 -7.957031 29.109375 -8.78125 L 33.046875 -3.46875 C 31.492188 -2.144531 29.617188 -1.0625 27.421875 -0.21875 C 25.222656 0.625 22.722656 1.046875 19.921875 1.046875 C 16.171875 1.046875 13.023438 0.300781 10.484375 -1.1875 C 7.953125 -2.6875 6.046875 -4.742188 4.765625 -7.359375 C 3.484375 -9.984375 2.84375 -12.992188 2.84375 -16.390625 C 2.84375 -19.628906 3.460938 -22.570312 4.703125 -25.21875 C 5.941406 -27.875 7.75 -29.988281 10.125 -31.5625 C 12.507812 -33.144531 15.425781 -33.9375 18.875 -33.9375 C 22.007812 -33.9375 24.722656 -33.265625 27.015625 -31.921875 C 29.316406 -30.585938 31.101562 -28.660156 32.375 -26.140625 C 33.644531 -23.628906 34.28125 -20.609375 34.28125 -17.078125 C 34.28125 -16.515625 34.265625 -15.914062 34.234375 -15.28125 C 34.203125 -14.644531 34.15625 -14.078125 34.09375 -13.578125 Z M 18.875 -27.375 C 17.113281 -27.375 15.695312 -26.742188 14.625 -25.484375 C 13.5625 -24.234375 12.914062 -22.222656 12.6875 -19.453125 L 24.75 -19.453125 C 24.726562 -21.847656 24.265625 -23.765625 23.359375 -25.203125 C 22.453125 -26.648438 20.957031 -27.375 18.875 -27.375 Z M 18.875 -27.375 "/></g></g></g><g fill="#000080" fill-opacity="1"><g transform="translate(113.253285, 58.228361)"><g><path d="M 4.328125 0 L 4.328125 -32.859375 L 12.875 -32.859375 L 13.546875 -29.046875 C 15.015625 -30.703125 16.5625 -31.929688 18.1875 -32.734375 C 19.820312 -33.535156 21.679688 -33.9375 23.765625 -33.9375 C 26.566406 -33.9375 28.769531 -33.078125 30.375 -31.359375 C 31.988281 -29.648438 32.796875 -27.238281 32.796875 -24.125 L 32.796875 0 L 23.015625 0 L 23.015625 -21.3125 C 23.015625 -22.65625 22.921875 -23.722656 22.734375 -24.515625 C 22.546875 -25.304688 22.21875 -25.875 21.75 -26.21875 C 21.289062 -26.5625 20.660156 -26.734375 19.859375 -26.734375 C 19.179688 -26.734375 18.515625 -26.582031 17.859375 -26.28125 C 17.210938 -25.976562 16.578125 -25.546875 15.953125 -24.984375 C 15.335938 -24.429688 14.722656 -23.765625 14.109375 -22.984375 L 14.109375 0 Z M 4.328125 0 "/></g></g></g><g fill="#000080" fill-opacity="1"><g transform="translate(150.374946, 58.228361)"><g><path d="M 24.40625 -32.859375 L 24.40625 -6.6875 L 32.765625 -6.6875 L 32.765625 0 L 5.328125 0 L 5.328125 -6.6875 L 14.640625 -6.6875 L 14.640625 -26.171875 L 5.625 -26.171875 L 5.625 -32.859375 Z M 18.5 -50.0625 C 20.1875 -50.0625 21.566406 -49.535156 22.640625 -48.484375 C 23.710938 -47.429688 24.25 -46.117188 24.25 -44.546875 C 24.25 -42.984375 23.710938 -41.671875 22.640625 -40.609375 C 21.566406 -39.546875 20.1875 -39.015625 18.5 -39.015625 C 16.789062 -39.015625 15.394531 -39.546875 14.3125 -40.609375 C 13.226562 -41.671875 12.6875 -42.984375 12.6875 -44.546875 C 12.6875 -46.117188 13.226562 -47.429688 14.3125 -48.484375 C 15.394531 -49.535156 16.789062 -50.0625 18.5 -50.0625 Z M 18.5 -50.0625 "/></g></g></g><g fill="#000080" fill-opacity="1"><g transform="translate(187.496607, 58.228361)"><g><path d="M 16 -7.390625 L 32.453125 -7.390625 L 31.53125 0 L 4.453125 0 L 4.453125 -6.90625 L 20.765625 -25.5 L 5.8125 -25.5 L 5.8125 -32.859375 L 32.140625 -32.859375 L 32.140625 -25.984375 Z M 16 -7.390625 "/></g></g></g><g fill="#000080" fill-opacity="1"><g transform="translate(224.618268, 58.228361)"><g><path d="M 31.984375 -9.46875 C 31.984375 -8.226562 32.15625 -7.328125 32.5 -6.765625 C 32.84375 -6.210938 33.394531 -5.789062 34.15625 -5.5 L 32.140625 0.921875 C 30.203125 0.742188 28.566406 0.320312 27.234375 -0.34375 C 25.910156 -1.019531 24.863281 -2.039062 24.09375 -3.40625 C 22.84375 -1.894531 21.234375 -0.773438 19.265625 -0.046875 C 17.304688 0.679688 15.304688 1.046875 13.265625 1.046875 C 9.890625 1.046875 7.195312 0.0820312 5.1875 -1.84375 C 3.175781 -3.769531 2.171875 -6.25 2.171875 -9.28125 C 2.171875 -12.851562 3.566406 -15.609375 6.359375 -17.546875 C 9.148438 -19.484375 13.082031 -20.453125 18.15625 -20.453125 L 22.578125 -20.453125 L 22.578125 -21.6875 C 22.578125 -23.394531 22.023438 -24.660156 20.921875 -25.484375 C 19.828125 -26.316406 18.21875 -26.734375 16.09375 -26.734375 C 15.039062 -26.734375 13.6875 -26.582031 12.03125 -26.28125 C 10.382812 -25.976562 8.734375 -25.550781 7.078125 -25 L 4.828125 -31.5 C 6.953125 -32.300781 9.160156 -32.90625 11.453125 -33.3125 C 13.753906 -33.726562 15.816406 -33.9375 17.640625 -33.9375 C 22.523438 -33.9375 26.132812 -32.941406 28.46875 -30.953125 C 30.8125 -28.960938 31.984375 -26.09375 31.984375 -22.34375 Z M 16.640625 -5.9375 C 17.691406 -5.9375 18.796875 -6.25 19.953125 -6.875 C 21.109375 -7.507812 21.984375 -8.40625 22.578125 -9.5625 L 22.578125 -14.875 L 20.171875 -14.875 C 17.453125 -14.875 15.453125 -14.457031 14.171875 -13.625 C 12.890625 -12.789062 12.25 -11.570312 12.25 -9.96875 C 12.25 -8.707031 12.632812 -7.71875 13.40625 -7 C 14.1875 -6.289062 15.265625 -5.9375 16.640625 -5.9375 Z M 16.640625 -5.9375 "/></g></g></g><g fill="#000080" fill-opacity="1"><g transform="translate(261.739916, 58.228361)"><g><path d="M 4.328125 0 L 4.328125 -32.859375 L 12.875 -32.859375 L 13.546875 -29.046875 C 15.015625 -30.703125 16.5625 -31.929688 18.1875 -32.734375 C 19.820312 -33.535156 21.679688 -33.9375 23.765625 -33.9375 C 26.566406 -33.9375 28.769531 -33.078125 30.375 -31.359375 C 31.988281 -29.648438 32.796875 -27.238281 32.796875 -24.125 L 32.796875 0 L 23.015625 0 L 23.015625 -21.3125 C 23.015625 -22.65625 22.921875 -23.722656 22.734375 -24.515625 C 22.546875 -25.304688 22.21875 -25.875 21.75 -26.21875 C 21.289062 -26.5625 20.660156 -26.734375 19.859375 -26.734375 C 19.179688 -26.734375 18.515625 -26.582031 17.859375 -26.28125 C 17.210938 -25.976562 16.578125 -25.546875 15.953125 -24.984375 C 15.335938 -24.429688 14.722656 -23.765625 14.109375 -22.984375 L 14.109375 0 Z M 4.328125 0 "/></g></g></g><g fill="#000080" fill-opacity="1"><g transform="translate(298.86159, 58.228361)"><g><path d="M 33.90625 -1.921875 C 32.625 -1.097656 31.078125 -0.398438 29.265625 0.171875 C 27.453125 0.753906 25.410156 1.046875 23.140625 1.046875 C 18.847656 1.046875 15.660156 -0.046875 13.578125 -2.234375 C 11.492188 -4.429688 10.453125 -7.421875 10.453125 -11.203125 L 10.453125 -26.109375 L 3.5625 -26.109375 L 3.5625 -32.859375 L 10.453125 -32.859375 L 10.453125 -39.96875 L 20.234375 -41.140625 L 20.234375 -32.859375 L 30.8125 -32.859375 L 29.859375 -26.109375 L 20.234375 -26.109375 L 20.234375 -11.203125 C 20.234375 -9.566406 20.601562 -8.398438 21.34375 -7.703125 C 22.082031 -7.003906 23.269531 -6.65625 24.90625 -6.65625 C 26.0625 -6.65625 27.117188 -6.789062 28.078125 -7.0625 C 29.035156 -7.34375 29.894531 -7.703125 30.65625 -8.140625 Z M 33.90625 -1.921875 "/></g></g></g><g fill="#000080" fill-opacity="1"><g transform="translate(335.983264, 58.228361)"><g><path d="M 8.625 -37.890625 L 32.828125 -22.921875 L 32.828125 -15.9375 L 8.71875 -0.953125 L 4.296875 -7.609375 L 24.40625 -19.421875 L 4.296875 -30.875 Z M 8.625 -37.890625 "/></g></g></g><g fill="#0080ff" fill-opacity="1"><g transform="translate(38.934284, 58.228361)"><g><path d="M 1.765625 -47.0625 L 9.40625 -50.546875 L 35.359375 3.4375 L 27.71875 6.9375 Z M 1.765625 -47.0625 "/></g></g></g></svg>