<svg xmlns="http://www.w3.org/2000/svg" xmlns:xlink="http://www.w3.org/1999/xlink" width="500" zoomAndPan="magnify" viewBox="0 0 375 80.999996" height="108" preserveAspectRatio="xMidYMid meet" version="1.0"><defs><g/></defs><g fill="#000080" fill-opacity="1"><g transform="translate(0.00000925926, 64.77925)"><g><path d="M 36.6875 -32.1875 L 13.984375 -23.859375 L 36.6875 -15.609375 L 36.6875 -7.09375 L 4.234375 -19.4375 L 4.234375 -28.296875 L 36.6875 -40.640625 Z M 36.6875 -32.1875 "/></g></g></g><g fill="#000080" fill-opacity="1"><g transform="translate(40.847998, 64.77925)"><g><path d="M 20.25 -57.40625 L 29.734375 -57.40625 L 7.234375 6.8125 L -2.25 6.8125 Z M 20.25 -57.40625 "/></g></g></g><g fill="#000080" fill-opacity="1"><g transform="translate(67.579908, 64.77925)"><g><path d="M 40.84375 -18.203125 C 40.84375 -18.066406 40.773438 -17.113281 40.640625 -15.34375 L 12.890625 -15.34375 C 13.390625 -13.070312 14.570312 -11.273438 16.4375 -9.953125 C 18.300781 -8.640625 20.617188 -7.984375 23.390625 -7.984375 C 25.296875 -7.984375 26.988281 -8.265625 28.46875 -8.828125 C 29.945312 -9.398438 31.320312 -10.300781 32.59375 -11.53125 L 38.25 -5.390625 C 34.800781 -1.429688 29.753906 0.546875 23.109375 0.546875 C 18.972656 0.546875 15.3125 -0.257812 12.125 -1.875 C 8.945312 -3.488281 6.492188 -5.726562 4.765625 -8.59375 C 3.046875 -11.457031 2.1875 -14.707031 2.1875 -18.34375 C 2.1875 -21.9375 3.035156 -25.175781 4.734375 -28.0625 C 6.441406 -30.945312 8.785156 -33.195312 11.765625 -34.8125 C 14.742188 -36.425781 18.070312 -37.234375 21.75 -37.234375 C 25.34375 -37.234375 28.59375 -36.457031 31.5 -34.90625 C 34.40625 -33.363281 36.6875 -31.148438 38.34375 -28.265625 C 40.007812 -25.378906 40.84375 -22.023438 40.84375 -18.203125 Z M 21.8125 -29.1875 C 19.40625 -29.1875 17.382812 -28.503906 15.75 -27.140625 C 14.113281 -25.773438 13.113281 -23.910156 12.75 -21.546875 L 30.828125 -21.546875 C 30.460938 -23.867188 29.457031 -25.722656 27.8125 -27.109375 C 26.175781 -28.492188 24.175781 -29.1875 21.8125 -29.1875 Z M 21.8125 -29.1875 "/></g></g></g><g fill="#000080" fill-opacity="1"><g transform="translate(110.610087, 64.77925)"><g><path d="M 27.203125 -37.234375 C 31.753906 -37.234375 35.425781 -35.867188 38.21875 -33.140625 C 41.007812 -30.410156 42.40625 -26.363281 42.40625 -21 L 42.40625 0 L 31.78125 0 L 31.78125 -19.359375 C 31.78125 -22.273438 31.140625 -24.445312 29.859375 -25.875 C 28.585938 -27.3125 26.75 -28.03125 24.34375 -28.03125 C 21.65625 -28.03125 19.515625 -27.195312 17.921875 -25.53125 C 16.335938 -23.875 15.546875 -21.410156 15.546875 -18.140625 L 15.546875 0 L 4.90625 0 L 4.90625 -36.6875 L 15.0625 -36.6875 L 15.0625 -32.390625 C 16.476562 -33.929688 18.226562 -35.125 20.3125 -35.96875 C 22.40625 -36.8125 24.703125 -37.234375 27.203125 -37.234375 Z M 27.203125 -37.234375 "/></g></g></g><g fill="#000080" fill-opacity="1"><g transform="translate(157.731895, 64.77925)"><g><path d="M 4.90625 -36.6875 L 15.546875 -36.6875 L 15.546875 0 L 4.90625 0 Z M 10.234375 -41.796875 C 8.273438 -41.796875 6.679688 -42.363281 5.453125 -43.5 C 4.222656 -44.632812 3.609375 -46.046875 3.609375 -47.734375 C 3.609375 -49.410156 4.222656 -50.816406 5.453125 -51.953125 C 6.679688 -53.085938 8.273438 -53.65625 10.234375 -53.65625 C 12.179688 -53.65625 13.769531 -53.109375 15 -52.015625 C 16.226562 -50.929688 16.84375 -49.570312 16.84375 -47.9375 C 16.84375 -46.164062 16.226562 -44.695312 15 -43.53125 C 13.769531 -42.375 12.179688 -41.796875 10.234375 -41.796875 Z M 10.234375 -41.796875 "/></g></g></g><g fill="#000080" fill-opacity="1"><g transform="translate(178.258181, 64.77925)"><g><path d="M 35.109375 -8.1875 L 35.109375 0 L 2.390625 0 L 2.390625 -6.40625 L 21.0625 -28.5 L 2.859375 -28.5 L 2.859375 -36.6875 L 34.5 -36.6875 L 34.5 -30.28125 L 15.8125 -8.1875 Z M 35.109375 -8.1875 "/></g></g></g><g fill="#000080" fill-opacity="1"><g transform="translate(215.287344, 64.77925)"><g><path d="M 19.703125 -37.234375 C 25.390625 -37.234375 29.753906 -35.878906 32.796875 -33.171875 C 35.835938 -30.460938 37.359375 -26.382812 37.359375 -20.9375 L 37.359375 0 L 27.40625 0 L 27.40625 -4.5625 C 25.40625 -1.15625 21.679688 0.546875 16.234375 0.546875 C 13.410156 0.546875 10.960938 0.0703125 8.890625 -0.875 C 6.828125 -1.832031 5.25 -3.148438 4.15625 -4.828125 C 3.0625 -6.515625 2.515625 -8.425781 2.515625 -10.5625 C 2.515625 -13.976562 3.800781 -16.660156 6.375 -18.609375 C 8.945312 -20.566406 12.914062 -21.546875 18.28125 -21.546875 L 26.734375 -21.546875 C 26.734375 -23.867188 26.023438 -25.65625 24.609375 -26.90625 C 23.203125 -28.15625 21.09375 -28.78125 18.28125 -28.78125 C 16.320312 -28.78125 14.398438 -28.472656 12.515625 -27.859375 C 10.628906 -27.242188 9.023438 -26.410156 7.703125 -25.359375 L 3.890625 -32.796875 C 5.890625 -34.203125 8.285156 -35.289062 11.078125 -36.0625 C 13.878906 -36.84375 16.753906 -37.234375 19.703125 -37.234375 Z M 18.890625 -6.609375 C 20.703125 -6.609375 22.3125 -7.03125 23.71875 -7.875 C 25.132812 -8.71875 26.140625 -9.957031 26.734375 -11.59375 L 26.734375 -15.34375 L 19.4375 -15.34375 C 15.070312 -15.34375 12.890625 -13.910156 12.890625 -11.046875 C 12.890625 -9.679688 13.421875 -8.597656 14.484375 -7.796875 C 15.554688 -7.003906 17.023438 -6.609375 18.890625 -6.609375 Z M 18.890625 -6.609375 "/></g></g></g><g fill="#000080" fill-opacity="1"><g transform="translate(257.362804, 64.77925)"><g><path d="M 27.203125 -37.234375 C 31.753906 -37.234375 35.425781 -35.867188 38.21875 -33.140625 C 41.007812 -30.410156 42.40625 -26.363281 42.40625 -21 L 42.40625 0 L 31.78125 0 L 31.78125 -19.359375 C 31.78125 -22.273438 31.140625 -24.445312 29.859375 -25.875 C 28.585938 -27.3125 26.75 -28.03125 24.34375 -28.03125 C 21.65625 -28.03125 19.515625 -27.195312 17.921875 -25.53125 C 16.335938 -23.875 15.546875 -21.410156 15.546875 -18.140625 L 15.546875 0 L 4.90625 0 L 4.90625 -36.6875 L 15.0625 -36.6875 L 15.0625 -32.390625 C 16.476562 -33.929688 18.226562 -35.125 20.3125 -35.96875 C 22.40625 -36.8125 24.703125 -37.234375 27.203125 -37.234375 Z M 27.203125 -37.234375 "/></g></g></g><g fill="#000080" fill-opacity="1"><g transform="translate(304.484612, 64.77925)"><g><path d="M 28.578125 -1.765625 C 27.523438 -0.992188 26.238281 -0.414062 24.71875 -0.03125 C 23.195312 0.351562 21.59375 0.546875 19.90625 0.546875 C 15.539062 0.546875 12.164062 -0.566406 9.78125 -2.796875 C 7.394531 -5.023438 6.203125 -8.296875 6.203125 -12.609375 L 6.203125 -27.6875 L 0.546875 -27.6875 L 0.546875 -35.859375 L 6.203125 -35.859375 L 6.203125 -44.796875 L 16.84375 -44.796875 L 16.84375 -35.859375 L 25.984375 -35.859375 L 25.984375 -27.6875 L 16.84375 -27.6875 L 16.84375 -12.75 C 16.84375 -11.207031 17.238281 -10.015625 18.03125 -9.171875 C 18.832031 -8.328125 19.957031 -7.90625 21.40625 -7.90625 C 23.09375 -7.90625 24.523438 -8.363281 25.703125 -9.28125 Z M 28.578125 -1.765625 "/></g></g></g><g fill="#000080" fill-opacity="1"><g transform="translate(334.148848, 64.77925)"><g><path d="M 36.6875 -28.296875 L 36.6875 -19.4375 L 4.234375 -7.09375 L 4.234375 -15.609375 L 26.9375 -23.859375 L 4.234375 -32.1875 L 4.234375 -40.640625 Z M 36.6875 -28.296875 "/></g></g></g><g fill="#0080ff" fill-opacity="1"><g transform="translate(41.313265, 63.667432)"><g><path d="M 19.625 6.84375 L -2.9375 -57.5625 L 6.5625 -57.5625 L 29.125 6.84375 Z M 19.625 6.84375 "/></g></g></g></svg>